<svg width="24" height="24" viewBox="0 0 24 24" fill="none" xmlns="http://www.w3.org/2000/svg">
<g clip-path="url(#clip0_1_52)">
<path fill-rule="evenodd" clip-rule="evenodd" d="M12 24C18.6274 24 24 18.627 24 12C24 5.37305 18.6274 0 12 0C5.37256 0 0 5.37305 0 12C0 18.627 5.37256 24 12 24ZM18.2944 9.16406C18.2944 9.02344 18.2944 8.88281 18.2842 8.74023C18.9224 8.27148 19.4771 7.69922 19.9243 7.04688C19.3252 7.30859 18.6899 7.48047 18.0405 7.55469C18.7236 7.14844 19.2349 6.50586 19.479 5.75C18.8379 6.13281 18.1353 6.39844 17.4023 6.54102C16.8047 5.90234 15.9536 5.50781 15.0112 5.50781C14.5815 5.50781 14.1558 5.5918 13.7588 5.75586C13.3613 5.91992 13.0005 6.16211 12.6968 6.46484C12.3926 6.76953 12.1519 7.13086 11.9873 7.52734C11.8599 7.83398 11.7803 8.1582 11.7515 8.48828C11.7432 8.58594 11.7388 8.68359 11.7388 8.78125C11.7388 9.0332 11.7695 9.28711 11.8198 9.5293C10.5176 9.46289 9.24414 9.125 8.08154 8.53516C7.43994 8.20898 6.83984 7.81055 6.29248 7.34961C5.84863 6.97461 5.43945 6.55859 5.07129 6.10547C4.7876 6.5918 4.62598 7.14844 4.62598 7.75586C4.62549 8.29688 4.7583 8.82617 5.01318 9.30273C5.26758 9.77734 5.63574 10.1836 6.08496 10.4824C5.54883 10.4609 5.04297 10.3086 4.60645 10.0664V10.1074C4.60596 10.5605 4.69922 11.0059 4.87744 11.416C4.99658 11.6895 5.15332 11.9473 5.34473 12.1816C5.82324 12.7676 6.48975 13.1699 7.23096 13.3184C6.95703 13.3887 6.66211 13.4297 6.36865 13.4297C6.15576 13.4297 5.95264 13.4102 5.75049 13.3789C5.96045 14.0293 6.36865 14.5977 6.91748 15.0039C7.46631 15.4121 8.12793 15.6367 8.81104 15.6484C7.65234 16.5586 6.2207 17.0508 4.74805 17.0469C4.47412 17.0469 4.2207 17.0371 3.95703 17.0078C5.40674 17.9395 7.12939 18.4766 8.9834 18.4766C15.0015 18.4766 18.2944 13.4902 18.2944 9.16406Z" fill="#171717"/>
</g>
<defs>
<clipPath id="clip0_1_52">
<rect width="24" height="24" fill="white"/>
</clipPath>
</defs>
</svg>
