<svg width="24" height="24" viewBox="0 0 24 24" fill="none" xmlns="http://www.w3.org/2000/svg">
<g clip-path="url(#clip0_1_54)">
<path fill-rule="evenodd" clip-rule="evenodd" d="M12 24C18.6274 24 24 18.627 24 12C24 5.37305 18.6274 0 12 0C5.37256 0 0 5.37305 0 12C0 18.627 5.37256 24 12 24ZM19.1045 8C19.6333 8 19.7451 8.25781 19.6333 8.60938C19.4111 9.57617 17.2783 12.4219 17.2778 12.4199C17.0933 12.7012 17.0181 12.8418 17.2778 13.1582C17.3696 13.2793 17.5649 13.4609 17.7881 13.668C18.0171 13.8809 18.2764 14.1211 18.4834 14.3535C19.2354 15.1543 19.8022 15.8301 19.96 16.2949C20.1035 16.7617 19.8535 17 19.3535 17H17.6035C17.1357 17 16.8994 16.75 16.3906 16.2148C16.1738 15.9863 15.9077 15.707 15.5537 15.3711C14.5151 14.4238 14.0693 14.2988 13.8105 14.2988C13.4585 14.2988 13.3525 14.3945 13.3525 14.8691V16.3555C13.3525 16.7637 13.2148 17 12.103 17C10.2471 17 8.21045 15.9336 6.76367 13.9668C4.59326 11.0859 4 8.9082 4 8.46875C4 8.22461 4.09961 8 4.60059 8H6.35059C6.79785 8 6.96631 8.18555 7.1333 8.64453C7.98975 11.0078 9.43359 13.0703 10.0269 13.0703C10.2505 13.0703 10.3516 12.9727 10.3516 12.4395V9.99805C10.2871 8.87305 9.65625 8.78125 9.65625 8.38086C9.65625 8.24414 9.74707 8.10156 9.90625 8.03711C9.96338 8.01367 10.0288 8 10.1021 8H12.8535C13.2246 8 13.353 8.1875 13.353 8.60938V11.8926C13.353 12.2461 13.5146 12.3672 13.6255 12.3672C13.7007 12.3672 13.772 12.3535 13.8486 12.3203C13.999 12.2539 14.1714 12.1152 14.4409 11.8574C15.7021 10.5234 16.5928 8.46875 16.5928 8.46875C16.7046 8.22266 16.9082 8 17.3535 8H19.1045Z" fill="#171717"/>
</g>
<defs>
<clipPath id="clip0_1_54">
<rect width="24" height="24" fill="white"/>
</clipPath>
</defs>
</svg>
