<svg width="24" height="24" viewBox="0 0 24 24" fill="none" xmlns="http://www.w3.org/2000/svg">
<g>
<path d="M10.0993 9.99847C10.0993 9.08008 9.47432 9.08008 9.47432 9.08008H9.14322H6.90331H6.90234V11.0512H9.31481C9.73196 11.0512 10.0993 10.9183 10.0993 9.99847Z" fill="#383838"/>
<path d="M16.0579 11.0508C14.6944 11.0508 14.5039 12.411 14.5039 12.411H17.4051C17.4051 12.4119 17.4229 11.0508 16.0579 11.0508Z" fill="#383838"/>
<path d="M9.47483 12.4141H6.9043V14.7758H9.18143C9.22009 14.7758 9.27713 14.7777 9.34529 14.7758C9.71119 14.7666 10.4068 14.6622 10.4068 13.6283C10.4068 12.4025 9.47483 12.4141 9.47483 12.4141Z" fill="#383838"/>
<path d="M12 0C5.38323 0 0 5.38323 0 12C0 18.6163 5.38323 24 12 24C18.6163 24 24 18.6163 24 12C24 5.38323 18.6173 0 12 0ZM14.1234 8.0311H17.7675V9.11915H14.1234V8.0311ZM12.2808 13.7367C12.2808 16.4324 9.47442 16.3445 9.47442 16.3445H6.90389H6.82849H4.87859V7.511H6.82849H6.90389H9.47442C10.8718 7.511 11.9744 8.28293 11.9744 9.86353C11.9744 11.4436 10.6268 11.5442 10.6268 11.5442C12.4031 11.5437 12.2808 13.7367 12.2808 13.7367ZM19.0987 13.5917H14.5207C14.5207 15.2332 16.0757 15.1298 16.0757 15.1298C17.5432 15.1298 17.492 14.1795 17.492 14.1795H19.0479C19.0479 16.7017 16.025 16.5282 16.025 16.5282C12.3983 16.5282 12.6313 13.1519 12.6313 13.1519C12.6313 13.1519 12.6279 9.75767 16.025 9.75767C19.5999 9.75767 19.0977 13.5917 19.0987 13.5917Z" fill="#383838"/>
</g>
</svg>
