<svg width="26" height="26" viewBox="0 0 26 26" fill="none" xmlns="http://www.w3.org/2000/svg">
<path fill-rule="evenodd" clip-rule="evenodd" d="M4.64941 13C4.64941 12.4477 5.09713 12 5.64941 12H20.3494C20.9017 12 21.3494 12.4477 21.3494 13C21.3494 13.5523 20.9017 14 20.3494 14H5.64941C5.09713 14 4.64941 13.5523 4.64941 13Z" fill="#383838"/>
<path fill-rule="evenodd" clip-rule="evenodd" d="M12.2919 4.94133C12.6824 4.55081 13.3156 4.55081 13.7061 4.94133L21.0561 12.2913C21.2436 12.4788 21.349 12.7332 21.349 12.9984C21.349 13.2636 21.2436 13.518 21.0561 13.7055L13.7061 21.0555C13.3156 21.446 12.6824 21.446 12.2919 21.0555C11.9014 20.665 11.9014 20.0318 12.2919 19.6413L18.9348 12.9984L12.2919 6.35555C11.9014 5.96502 11.9014 5.33186 12.2919 4.94133Z" fill="#383838"/>
</svg>
