<svg width="32" height="32" viewBox="0 0 32 32" fill="none" xmlns="http://www.w3.org/2000/svg">
<g clip-path="url(#clip0_1_84)">
<path d="M15.9469 29.2887H3.98669C3.25312 29.2887 2.65781 28.6933 2.65781 27.9598V4.03948C2.65781 3.30592 3.25319 2.71061 3.98669 2.71061H15.9469C16.6817 2.71061 17.2757 2.11661 17.2757 1.38173C17.2757 0.646859 16.6817 0.0527344 15.9469 0.0527344H3.98669C1.78869 0.0527344 0 1.84148 0 4.03948V27.9597C0 30.1577 1.78869 31.9464 3.98669 31.9464H15.9469C16.6817 31.9464 17.2757 31.3524 17.2757 30.6175C17.2757 29.8827 16.6817 29.2887 15.9469 29.2887Z" fill="#171717"/>
<path d="M31.6056 15.0533L23.5258 7.07985C23.0049 6.56422 22.1624 6.57091 21.6467 7.09316C21.1311 7.61541 21.1364 8.4566 21.6601 8.97222L27.4341 14.6705H11.9617C11.2268 14.6705 10.6328 15.2645 10.6328 15.9994C10.6328 16.7343 11.2268 17.3283 11.9617 17.3283H27.4341L21.6601 23.0267C21.1365 23.5423 21.1325 24.3835 21.6467 24.9057C21.9072 25.1688 22.2501 25.3017 22.5929 25.3017C22.9305 25.3017 23.268 25.1742 23.5258 24.919L31.6056 16.9455C31.8581 16.6957 32.0016 16.3555 32.0016 15.9993C32.0016 15.6433 31.8594 15.3045 31.6056 15.0533Z" fill="#171717"/>
</g>
<defs>
<clipPath id="clip0_1_84">
<rect width="32" height="32" fill="white"/>
</clipPath>
</defs>
</svg>
