<svg width="80" height="80" viewBox="0 0 80 80" fill="none" xmlns="http://www.w3.org/2000/svg">
<path d="M16.9131 60.2778C13.8976 60.2778 11.4443 62.7311 11.4443 65.7466C11.4443 68.7621 13.8976 71.2153 16.9131 71.2153C19.9286 71.2153 22.3818 68.7621 22.3818 65.7466C22.3818 62.7311 19.9286 60.2778 16.9131 60.2778ZM16.9131 68.0903C15.6207 68.0903 14.5693 67.0389 14.5693 65.7466C14.5693 64.4542 15.6207 63.4028 16.9131 63.4028C18.2054 63.4028 19.2568 64.4542 19.2568 65.7466C19.2568 67.0389 18.2054 68.0903 16.9131 68.0903Z" fill="#383838"/>
<path d="M76.6976 36.3394L73.74 32.1942C73.2386 31.4917 72.2628 31.3284 71.5606 31.8298C70.8581 32.3311 70.695 33.3069 71.1962 34.0092L74.1539 38.1544C74.2632 38.3078 74.2273 38.522 74.0745 38.6313L64.5159 45.4512L52.2481 28.2588L53.3851 26.0506L61.1459 20.5125C61.2993 20.403 61.5137 20.4392 61.6228 20.5919L63.9361 23.8339C64.4373 24.5364 65.4131 24.6995 66.1154 24.1983C66.8179 23.6972 66.9811 22.7213 66.4798 22.0189L64.1659 18.7758C63.0548 17.2214 60.8856 16.8594 59.3309 17.9688L56.5103 19.9816L58.0954 16.9033C58.5203 16.0809 58.5992 15.1422 58.3175 14.2602C58.0354 13.3772 57.4264 12.6572 56.6021 12.2328L37.4207 2.35625C36.5979 1.9325 35.659 1.85438 34.7773 2.13641C33.8953 2.41859 33.1761 3.02719 32.7521 3.85031L31.1662 6.93047V3.46609C31.1662 1.55484 29.6112 0 27.7 0H6.12527C4.21402 0 2.65918 1.55484 2.65918 3.46609V65.7466C2.65918 73.6059 9.05324 80 16.9128 80C20.0034 80 22.8671 79.0108 25.2048 77.333C25.2404 77.3116 25.2754 77.2886 25.3098 77.2641L40.2989 66.5687L52.6773 57.7367C52.6778 57.7364 52.6781 57.7363 52.6786 57.7359C52.6789 57.7356 52.6792 57.7355 52.6795 57.7352L75.8904 41.1742C77.445 40.0633 77.8071 37.8942 76.6976 36.3394ZM61.9718 47.2663L52.1353 54.2845L44.417 43.467L50.6387 31.3839L61.9718 47.2663ZM39.7557 63.1175L36.5862 58.6753L42.8081 46.592L49.5917 56.0995L39.7557 63.1175ZM36.0181 52.952L31.1661 50.4533V36.8634L41.5493 42.2098L41.1951 42.8977C41.1917 42.9047 41.1878 42.9114 41.1843 42.9184L36.0181 52.952ZM42.98 39.4316L31.1662 33.3486V19.7558L48.512 28.688L42.98 39.4316ZM28.0412 30.4167H5.78418V18.3334H28.0412V30.4167ZM5.78418 33.5417H28.0412V45.625H5.78418V33.5417ZM31.1662 53.9683L34.5876 55.7303L31.1662 62.3748V53.9683ZM34.977 61.8003L37.2118 64.9325L31.1293 69.2727L34.977 61.8003ZM35.5304 5.28109C35.5837 5.1775 35.6681 5.1325 35.7295 5.11281C35.7911 5.09312 35.8861 5.08094 35.9901 5.13453L55.1712 15.0109C55.2753 15.0645 55.3206 15.1492 55.3403 15.2108C55.3598 15.2717 55.3718 15.3661 55.3178 15.4706L49.9426 25.9097L31.1662 16.2408V13.757L35.5304 5.28109ZM6.12527 3.125H27.7C27.8881 3.125 28.0412 3.27797 28.0412 3.46609V15.2083H5.78418V3.46609C5.78418 3.27797 5.93715 3.125 6.12527 3.125ZM16.9126 76.875C10.7764 76.875 5.78418 71.8828 5.78418 65.7466V48.75H28.0412V65.7466C28.0412 71.8828 23.0489 76.875 16.9126 76.875Z" fill="#383838"/>
<path d="M68.8379 29.5766C69.7008 29.5766 70.4004 28.877 70.4004 28.0141C70.4004 27.1511 69.7008 26.4516 68.8379 26.4516C67.9749 26.4516 67.2754 27.1511 67.2754 28.0141C67.2754 28.877 67.9749 29.5766 68.8379 29.5766Z" fill="#383838"/>
</svg>
