<svg width="81" height="80" viewBox="0 0 81 80" fill="none" xmlns="http://www.w3.org/2000/svg">

<path d="M79.6895 23.8562L52.8145 9.09912C52.3463 8.84216 51.7787 8.84216 51.3105 9.09912L41.2043 14.6484C40.9761 14.7119 40.7631 14.8285 40.5824 14.9896L24.4355 23.8562C23.9357 24.1309 23.625 24.6558 23.625 25.2258V28.4204H5.59766C4.73462 28.4204 4.03516 29.1205 4.03516 29.9829C4.03516 30.8459 4.73462 31.5454 5.59766 31.5454H23.625V37.1704H14.6669C13.8038 37.1704 13.1044 37.8705 13.1044 38.7329C13.1044 39.5959 13.8038 40.2954 14.6669 40.2954H23.625V48.4204H10.5C9.63696 48.4204 8.9375 49.1205 8.9375 49.9829C8.9375 50.8459 9.63696 51.5454 10.5 51.5454H23.625V54.7406C23.625 55.3107 23.9357 55.8356 24.4355 56.1102L51.3105 70.8673C51.5449 70.9961 51.8037 71.0602 52.0625 71.0602C52.3213 71.0602 52.5801 70.9961 52.8145 70.8673L79.6895 56.1102C80.1893 55.8356 80.5 55.3107 80.5 54.7406V47.7435C80.5 46.8811 79.8005 46.181 78.9375 46.181C78.0745 46.181 77.375 46.8811 77.375 47.7435V53.8159L53.625 66.8573V40.9076L61.1781 36.7603V43.3423C61.1781 43.8953 61.4698 44.4067 61.9453 44.6875C62.1901 44.8322 62.4653 44.9048 62.7406 44.9048C62.9994 44.9048 63.2588 44.8407 63.4938 44.7113L69.2531 41.5417C69.7517 41.2671 70.0618 40.7428 70.0618 40.1727V31.8823L77.375 27.8668V35.2435C77.375 36.1066 78.0745 36.806 78.9375 36.806C79.8005 36.806 80.5 36.1066 80.5 35.2435V25.2258C80.5 24.6558 80.1893 24.1309 79.6895 23.8562ZM50.5 66.8573L26.75 53.8159V27.8668L50.5 40.9076V66.8573ZM52.0625 38.2007L28.434 25.2258L35.8601 21.1481L59.4893 34.1229L52.0625 38.2007ZM62.7357 32.3401L39.1066 19.3652L41.6682 17.959L65.2968 30.9338L62.7357 32.3401ZM66.9368 39.2493L64.3031 40.6989V35.0446L66.9368 33.598V39.2493ZM68.5432 29.151L44.9147 16.1761L52.0625 12.2516L75.691 25.2258L68.5432 29.151Z" fill="#171717"/>
<path d="M78.9375 39.9316C78.5267 39.9316 78.1233 40.097 77.8328 40.3894C77.5422 40.6799 77.375 41.0815 77.375 41.4941C77.375 41.9049 77.5422 42.3083 77.8328 42.5989C78.1233 42.8894 78.5267 43.0566 78.9375 43.0566C79.3483 43.0566 79.7517 42.8894 80.0422 42.5989C80.3328 42.3083 80.5 41.9049 80.5 41.4941C80.5 41.0815 80.3328 40.6799 80.0422 40.3894C79.7517 40.097 79.3483 39.9316 78.9375 39.9316Z" fill="#171717"/>
<path d="M4.30188 48.4204H2.0625C1.19946 48.4204 0.5 49.1205 0.5 49.9829C0.5 50.8459 1.19946 51.5454 2.0625 51.5454H4.30188C5.16492 51.5454 5.86438 50.8459 5.86438 49.9829C5.86438 49.1205 5.16492 48.4204 4.30188 48.4204Z" fill="#171717"/>
<path d="M9.97949 38.7329C9.97949 38.3221 9.81226 37.9193 9.52112 37.6288C9.23059 37.3376 8.82776 37.1704 8.41699 37.1704C8.00562 37.1704 7.60278 37.3376 7.31226 37.6288C7.0199 37.9193 6.85449 38.3221 6.85449 38.7329C6.85449 39.1443 7.0199 39.5471 7.31226 39.8376C7.60278 40.1282 8.00562 40.2954 8.41699 40.2954C8.82776 40.2954 9.23059 40.1288 9.52112 39.8376C9.81226 39.5471 9.97949 39.1443 9.97949 38.7329Z" fill="#171717"/>

</svg>
