<svg width="81" height="80" viewBox="0 0 81 80" fill="none" xmlns="http://www.w3.org/2000/svg">
<path d="M5.86655 67.8662C5.72912 68.0035 5.62555 68.1708 5.56405 68.355L3.06405 75.855C3.00146 76.0429 2.98442 76.243 3.01434 76.4388C3.04426 76.6346 3.12027 76.8205 3.23612 76.9811C3.35197 77.1418 3.50434 77.2726 3.68067 77.3628C3.85699 77.453 4.05224 77.5 4.2503 77.5C4.38463 77.5 4.51805 77.478 4.6453 77.435L12.1453 74.935C12.3292 74.8734 12.4964 74.7703 12.6341 74.6338L35.5003 51.7675V70C35.5004 70.2268 35.5622 70.4494 35.6791 70.6438L39.4291 76.8938C39.5402 77.0786 39.6972 77.2315 39.8849 77.3377C40.0727 77.4438 40.2846 77.4996 40.5003 77.4996C40.716 77.4996 40.9279 77.4438 41.1157 77.3377C41.3034 77.2315 41.4604 77.0786 41.5715 76.8938L45.3215 70.6438C45.4384 70.4494 45.5002 70.2268 45.5003 70V41.7675L69.2503 18.0175L70.8665 19.6337C71.2288 19.996 71.6589 20.2834 72.1323 20.4795C72.6056 20.6755 73.113 20.7765 73.6253 20.7765C74.1376 20.7765 74.645 20.6755 75.1183 20.4795C75.5917 20.2834 76.0218 19.996 76.384 19.6337C76.7463 19.2715 77.0337 18.8414 77.2298 18.368C77.4258 17.8947 77.5268 17.3873 77.5268 16.875C77.5268 16.3627 77.4258 15.8553 77.2298 15.382C77.0337 14.9086 76.7463 14.4785 76.384 14.1163L66.3841 4.11625C66.0218 3.75397 65.5917 3.46659 65.1183 3.27052C64.645 3.07445 64.1376 2.97354 63.6253 2.97354C63.113 2.97354 62.6056 3.07445 62.1323 3.27052C61.6589 3.46659 61.2288 3.75397 60.8666 4.11625C60.5043 4.47853 60.2169 4.90863 60.0208 5.38198C59.8248 5.85532 59.7238 6.36265 59.7238 6.875C59.7238 7.38735 59.8248 7.89468 60.0208 8.36802C60.2169 8.84137 60.5043 9.27147 60.8666 9.63375L62.4828 11.25L45.5003 28.2325V10H50.5003C51.4949 10 52.4487 9.60491 53.1519 8.90165C53.8552 8.19839 54.2503 7.24456 54.2503 6.25C54.2503 5.25544 53.8552 4.30161 53.1519 3.59835C52.4487 2.89509 51.4949 2.5 50.5003 2.5H30.5003C29.5057 2.5 28.5519 2.89509 27.8486 3.59835C27.1454 4.30161 26.7503 5.25544 26.7503 6.25C26.7503 7.24456 27.1454 8.19839 27.8486 8.90165C28.5519 9.60491 29.5057 10 30.5003 10H35.5003V38.2325L5.86655 67.8662ZM10.5003 72.8487L6.22655 74.2738L7.65155 70H10.5003V72.8487ZM35.5003 48.2325L13.0003 70.7325V68.75C13.0003 68.4185 12.8686 68.1005 12.6342 67.8661C12.3998 67.6317 12.0818 67.5 11.7503 67.5H9.7678L35.5003 41.7675V48.2325ZM40.5003 73.8213L38.3241 70.1963L40.5003 68.0175L42.6766 70.1937L40.5003 73.8213ZM43.0003 66.9825L41.3841 65.3662C41.1496 65.1319 40.8318 65.0003 40.5003 65.0003C40.1688 65.0003 39.851 65.1319 39.6166 65.3662L38.0003 66.9825V15H43.0003V66.9825ZM43.0003 12.5H38.0003V10H43.0003V12.5ZM62.2228 6.875C62.2236 6.59801 62.3063 6.32745 62.4605 6.09736C62.6147 5.86728 62.8336 5.68797 63.0895 5.58199C63.3454 5.47602 63.6269 5.44812 63.8987 5.50182C64.1704 5.55552 64.4202 5.6884 64.6166 5.88375L74.6165 15.8837C74.8794 16.1466 75.0271 16.5032 75.0271 16.875C75.0271 17.2468 74.8794 17.6034 74.6165 17.8663C74.3537 18.1291 73.9971 18.2768 73.6253 18.2768C73.2535 18.2768 72.8969 18.1291 72.634 17.8663L62.6341 7.86625C62.5033 7.73648 62.3996 7.58204 62.329 7.41187C62.2584 7.24171 62.2223 7.05922 62.2228 6.875ZM64.2503 13.0175L67.4828 16.25L65.5003 18.2325L62.2678 15L64.2503 13.0175ZM60.5003 16.7675L63.7328 20L45.5003 38.2325V31.7675L60.5003 16.7675ZM30.5003 7.5C30.1688 7.5 29.8508 7.3683 29.6164 7.13388C29.382 6.89946 29.2503 6.58152 29.2503 6.25C29.2503 5.91848 29.382 5.60054 29.6164 5.36612C29.8508 5.1317 30.1688 5 30.5003 5H50.5003C50.8318 5 51.1498 5.1317 51.3842 5.36612C51.6186 5.60054 51.7503 5.91848 51.7503 6.25C51.7503 6.58152 51.6186 6.89946 51.3842 7.13388C51.1498 7.3683 50.8318 7.5 50.5003 7.5H30.5003Z" fill="#171717"/>
</svg>
