<svg width="197" height="70" viewBox="0 0 197 70" fill="none" xmlns="http://www.w3.org/2000/svg">
<path opacity="0.05" d="M45.9 54.5H15.5L9.9 70H0.3L25.5 0.699998H36L61.1 70H51.5L45.9 54.5ZM43.3 47.1L30.7 11.9L18.1 47.1H43.3ZM128.683 20.7C128.683 26.5 126.683 31.3333 122.683 35.2C118.749 39 112.716 40.9 104.583 40.9H91.1828V70H82.0828V0.299997H104.583C112.449 0.299997 118.416 2.2 122.483 6C126.616 9.8 128.683 14.7 128.683 20.7ZM104.583 33.4C109.649 33.4 113.383 32.3 115.783 30.1C118.183 27.9 119.383 24.7667 119.383 20.7C119.383 12.1 114.449 7.8 104.583 7.8H91.1828V33.4H104.583ZM196.593 20.7C196.593 26.5 194.593 31.3333 190.593 35.2C186.66 39 180.626 40.9 172.493 40.9H159.093V70H149.993V0.299997H172.493C180.36 0.299997 186.326 2.2 190.393 6C194.526 9.8 196.593 14.7 196.593 20.7ZM172.493 33.4C177.56 33.4 181.293 32.3 183.693 30.1C186.093 27.9 187.293 24.7667 187.293 20.7C187.293 12.1 182.36 7.8 172.493 7.8H159.093V33.4H172.493Z" fill="#383838"/>
</svg>
