<svg width="350" height="72" viewBox="0 0 350 72" fill="none" xmlns="http://www.w3.org/2000/svg">
<path opacity="0.05" d="M93.3 1.3L73.1 71H62.9L46.7 14.9L29.9 71L19.8 71.1L0.3 1.3H10L25.2 60.4L42 1.3H52.2L68.2 60.2L83.5 1.3H93.3ZM144.859 71.7C138.392 71.7 132.492 70.2 127.159 67.2C121.825 64.1333 117.592 59.9 114.459 54.5C111.392 49.0333 109.859 42.9 109.859 36.1C109.859 29.3 111.392 23.2 114.459 17.8C117.592 12.3333 121.825 8.1 127.159 5.1C132.492 2.03333 138.392 0.499996 144.859 0.499996C151.392 0.499996 157.325 2.03333 162.659 5.1C167.992 8.1 172.192 12.3 175.259 17.7C178.325 23.1 179.859 29.2333 179.859 36.1C179.859 42.9667 178.325 49.1 175.259 54.5C172.192 59.9 167.992 64.1333 162.659 67.2C157.325 70.2 151.392 71.7 144.859 71.7ZM144.859 63.8C149.725 63.8 154.092 62.6667 157.959 60.4C161.892 58.1333 164.959 54.9 167.159 50.7C169.425 46.5 170.559 41.6333 170.559 36.1C170.559 30.5 169.425 25.6333 167.159 21.5C164.959 17.3 161.925 14.0667 158.059 11.8C154.192 9.53333 149.792 8.4 144.859 8.4C139.925 8.4 135.525 9.53333 131.659 11.8C127.792 14.0667 124.725 17.3 122.459 21.5C120.259 25.6333 119.159 30.5 119.159 36.1C119.159 41.6333 120.259 46.5 122.459 50.7C124.725 54.9 127.792 58.1333 131.659 60.4C135.592 62.6667 139.992 63.8 144.859 63.8ZM233.472 71.7C227.005 71.7 221.105 70.2 215.772 67.2C210.439 64.1333 206.205 59.9 203.072 54.5C200.005 49.0333 198.472 42.9 198.472 36.1C198.472 29.3 200.005 23.2 203.072 17.8C206.205 12.3333 210.439 8.1 215.772 5.1C221.105 2.03333 227.005 0.499996 233.472 0.499996C240.005 0.499996 245.939 2.03333 251.272 5.1C256.605 8.1 260.805 12.3 263.872 17.7C266.939 23.1 268.472 29.2333 268.472 36.1C268.472 42.9667 266.939 49.1 263.872 54.5C260.805 59.9 256.605 64.1333 251.272 67.2C245.939 70.2 240.005 71.7 233.472 71.7ZM233.472 63.8C238.339 63.8 242.705 62.6667 246.572 60.4C250.505 58.1333 253.572 54.9 255.772 50.7C258.039 46.5 259.172 41.6333 259.172 36.1C259.172 30.5 258.039 25.6333 255.772 21.5C253.572 17.3 250.539 14.0667 246.672 11.8C242.805 9.53333 238.405 8.4 233.472 8.4C228.539 8.4 224.139 9.53333 220.272 11.8C216.405 14.0667 213.339 17.3 211.072 21.5C208.872 25.6333 207.772 30.5 207.772 36.1C207.772 41.6333 208.872 46.5 211.072 50.7C213.339 54.9 216.405 58.1333 220.272 60.4C224.205 62.6667 228.605 63.8 233.472 63.8ZM312.185 1.3C319.785 1.3 326.352 2.73333 331.885 5.6C337.485 8.4 341.752 12.4333 344.685 17.7C347.685 22.9667 349.185 29.1667 349.185 36.3C349.185 43.4333 347.685 49.6333 344.685 54.9C341.752 60.1 337.485 64.1 331.885 66.9C326.352 69.6333 319.785 71 312.185 71H290.485V1.3H312.185ZM312.185 63.5C321.185 63.5 328.052 61.1333 332.785 56.4C337.518 51.6 339.885 44.9 339.885 36.3C339.885 27.6333 337.485 20.8667 332.685 16C327.952 11.1333 321.118 8.7 312.185 8.7H299.585V63.5H312.185Z" fill="#171717"/>
</svg>
