<svg viewBox="0 0 244 297" fill="none" xmlns="http://www.w3.org/2000/svg">
<g opacity="0.1">
<path d="M91.2579 2.66936C91.2579 1.19511 92.2556 0 93.4864 0H106.412C107.643 0 108.64 1.19512 108.64 2.66937V294.031C108.64 295.505 107.643 296.7 106.412 296.7H93.4864C92.2556 296.7 91.2579 295.505 91.2579 294.031V2.66936Z" fill="#9E6F47"/>
<path d="M121.677 49.5167C121.677 48.0424 122.675 46.8473 123.906 46.8473H136.831C138.062 46.8473 139.06 48.0424 139.06 49.5167V247.183C139.06 248.657 138.062 249.853 136.831 249.853H123.906C122.675 249.853 121.677 248.657 121.677 247.183V49.5167Z" fill="#9E6F47"/>
<path d="M152.096 91.1588C152.096 89.6846 153.094 88.4895 154.325 88.4895H167.25C168.481 88.4895 169.479 89.6846 169.479 91.1588V205.541C169.479 207.015 168.481 208.21 167.25 208.21H154.325C153.094 208.21 152.096 207.015 152.096 205.541V91.1588Z" fill="#9E6F47"/>
<path d="M182.516 44.3115C182.516 42.8373 183.514 41.6422 184.744 41.6422H197.67C198.901 41.6422 199.898 42.8373 199.898 44.3115V252.389C199.898 253.863 198.901 255.058 197.67 255.058H184.744C183.514 255.058 182.516 253.863 182.516 252.389V44.3115Z" fill="#9E6F47"/>
<path d="M212.935 91.1588C212.935 89.6846 213.933 88.4895 215.164 88.4895H228.089C229.32 88.4895 230.318 89.6846 230.318 91.1588V205.541C230.318 207.015 229.32 208.21 228.089 208.21H215.164C213.933 208.21 212.935 207.015 212.935 205.541V91.1588Z" fill="#9E6F47"/>
<path d="M60.8386 44.3115C60.8386 42.8373 61.8363 41.6422 63.0671 41.6422H75.9925C77.2233 41.6422 78.2211 42.8373 78.2211 44.3115V252.389C78.2211 253.863 77.2233 255.058 75.9925 255.058H63.0671C61.8363 255.058 60.8386 253.863 60.8386 252.389V44.3115Z" fill="#9E6F47"/>
<path d="M30.4193 91.1588C30.4193 89.6846 31.417 88.4895 32.6478 88.4895H45.5732C46.804 88.4895 47.8018 89.6846 47.8018 91.1588V205.541C47.8018 207.015 46.804 208.21 45.5732 208.21H32.6478C31.417 208.21 30.4193 207.015 30.4193 205.541V91.1588Z" fill="#9E6F47"/>
<path d="M0 111.98C0 110.506 0.997742 109.311 2.22852 109.311H15.1539C16.3847 109.311 17.3825 110.506 17.3825 111.98V184.72C17.3825 186.194 16.3847 187.39 15.1539 187.39H2.22852C0.997741 187.39 0 186.194 0 184.72V111.98Z" fill="#9E6F47"/>
</g>
</svg>
