<svg width="81" height="80" viewBox="0 0 81 80" fill="none" xmlns="http://www.w3.org/2000/svg">
<path d="M79.5596 28.1369C79.1827 27.6092 78.6783 27.1853 78.0935 26.9048C77.5086 26.6243 76.8622 26.4963 76.2146 26.5326H71.8118L73.317 22.9265C73.644 22.2655 73.802 21.5338 73.7768 20.7969C73.7516 20.06 73.5441 19.3408 73.1728 18.7037C72.7962 18.176 72.2922 17.7522 71.7075 17.4717C71.1229 17.1912 70.4768 17.0632 69.8293 17.0995H64.015L65.9348 12.4999C66.2618 11.8389 66.4198 11.1072 66.3946 10.3703C66.3695 9.63334 66.162 8.91411 65.7908 8.27691C65.4141 7.74931 64.91 7.32555 64.3254 7.04507C63.7408 6.76459 63.0947 6.63651 62.4473 6.67276H23.6734C22.0688 6.77914 20.5241 7.3237 19.2078 8.2471C17.8915 9.17049 16.854 10.4373 16.2083 11.9095L11.9037 22.2268L11.9018 22.2308L5.61069 37.3057L5.60392 37.3222L1.29725 47.6401C0.969521 48.3007 0.810864 49.0323 0.835495 49.7693C0.860125 50.5063 1.06727 51.2256 1.43838 51.8629C1.81518 52.3908 2.31952 52.8147 2.90441 53.0952C3.4893 53.3758 4.13571 53.5037 4.78342 53.4672H10.6607L8.67638 58.0667C8.34945 58.728 8.1915 59.4599 8.21664 60.1971C8.24178 60.9343 8.44922 61.6537 8.82044 62.2912C9.19742 62.8188 9.70173 63.2425 10.2865 63.523C10.8712 63.8035 11.5174 63.9317 12.165 63.8957H16.5681L15.0631 67.5003C14.7362 68.1613 14.5782 68.893 14.6034 69.6299C14.6285 70.3668 14.836 71.0861 15.2072 71.7233C15.5839 72.2509 16.088 72.6746 16.6726 72.9551C17.2572 73.2356 17.9032 73.3637 18.5507 73.3274H57.3246C58.9292 73.221 60.4738 72.6765 61.7901 71.7531C63.1065 70.8298 64.144 69.563 64.7896 68.0908L79.7041 32.3597C80.031 31.6988 80.1889 30.9671 80.1637 30.2301C80.1385 29.4932 79.9309 28.774 79.5596 28.1369ZM62.4473 8.20991C62.8408 8.1788 63.2359 8.24668 63.5965 8.40736C63.9571 8.56803 64.2716 8.81639 64.5115 9.12977C64.7383 9.55779 64.8571 10.0347 64.8577 10.519C64.8582 11.0034 64.7405 11.4805 64.5146 11.909L62.1526 17.5677L62.1515 17.5705L60.403 21.7597H45.9679L51.6233 8.21007L62.4473 8.20991ZM37.3627 38.3819L31.7078 51.9305H17.2728L22.9281 38.3816L37.3627 38.3819ZM23.5695 36.8452L29.2244 23.2964H43.6594L38.0043 36.8453L23.5695 36.8452ZM39.0299 38.3819H53.4644L49.6003 47.6401C49.0634 48.8261 48.221 49.8483 47.1593 50.6021C46.0976 51.3559 44.8546 51.8144 43.5575 51.9305H33.3748L39.0299 38.3819ZM39.6711 36.8452L45.3264 23.2964H59.7613L54.1056 36.8459L39.6711 36.8452ZM49.9562 8.20976L44.3008 21.7597H29.866L35.5214 8.21007L49.9562 8.20976ZM17.6289 12.5003C18.1661 11.3143 19.0088 10.2921 20.0708 9.53832C21.1328 8.78451 22.3761 8.32608 23.6734 8.20991H33.8543L28.1988 21.7597H13.7639L17.6289 12.5003ZM13.1231 23.2964H27.5575L21.9023 36.8449H7.46862L13.1231 23.2964ZM2.71749 51.0105C2.49097 50.5824 2.37244 50.1054 2.37217 49.6211C2.3719 49.1368 2.48991 48.6597 2.71595 48.2313L6.82722 38.3811H21.2609L15.6057 51.9305H4.78342C4.38959 51.9618 3.9942 51.894 3.63333 51.7333C3.27245 51.5726 2.95759 51.3241 2.71749 51.0105ZM10.0997 61.4388C9.8733 61.0122 9.7543 60.5368 9.75299 60.0539C9.75167 59.5709 9.86809 59.095 10.0922 58.6671L12.3349 53.4672H43.5573C45.1615 53.3606 46.7057 52.8161 48.0217 51.8928C49.3377 50.9696 50.375 49.7031 51.0205 48.2313L55.3269 37.9143L55.3277 37.9121L63.3736 18.6367H69.8293C70.2229 18.6055 70.618 18.6734 70.9786 18.834C71.3392 18.9947 71.6538 19.2431 71.8937 19.5565C72.0985 19.9364 72.2136 20.3582 72.2303 20.7894C72.247 21.2206 72.1648 21.65 71.99 22.0446H68.7868C68.583 22.0446 68.3875 22.1255 68.2433 22.2696C68.0991 22.4137 68.0182 22.6091 68.0182 22.8129C68.0182 23.0167 68.0991 23.2121 68.2433 23.3562C68.3875 23.5003 68.583 23.5813 68.7868 23.5813H71.3763L69.9185 27.0734H66.7141C66.5103 27.0734 66.3148 27.1543 66.1706 27.2984C66.0264 27.4425 65.9454 27.6379 65.9454 27.8417C65.9454 28.0455 66.0264 28.2409 66.1706 28.385C66.3148 28.5291 66.5103 28.6101 66.7141 28.6101H69.2779L67.8201 32.1016H64.6107C64.4068 32.1016 64.2113 32.1825 64.0672 32.3266C63.923 32.4707 63.842 32.6661 63.842 32.8699C63.842 33.0737 63.923 33.2691 64.0672 33.4132C64.2113 33.5573 64.4068 33.6383 64.6107 33.6383H67.1781L65.7205 37.1302H62.4937C62.2898 37.1302 62.0943 37.2112 61.9502 37.3553C61.806 37.4994 61.725 37.6948 61.725 37.8986C61.725 38.1024 61.806 38.2978 61.9502 38.4419C62.0943 38.586 62.2898 38.6669 62.4937 38.6669H65.0796L63.622 42.159H60.4355C60.2316 42.159 60.0361 42.24 59.8919 42.3841C59.7478 42.5282 59.6668 42.7236 59.6668 42.9274C59.6668 43.1312 59.7478 43.3266 59.8919 43.4707C60.0361 43.6148 60.2316 43.6957 60.4355 43.6957H62.9808L61.523 47.1877H58.2599C58.056 47.1877 57.8605 47.2687 57.7164 47.4128C57.5722 47.5568 57.4912 47.7523 57.4912 47.9561C57.4912 48.1598 57.5722 48.3553 57.7164 48.4994C57.8605 48.6435 58.056 48.7244 58.2599 48.7244H60.8816L59.4242 52.2168H56.2003C55.9964 52.2168 55.8009 52.2978 55.6567 52.4419C55.5126 52.586 55.4316 52.7814 55.4316 52.9852C55.4316 53.189 55.5126 53.3844 55.6567 53.5285C55.8009 53.6726 55.9964 53.7535 56.2003 53.7535H58.7831L57.3256 57.2457H54.0982C53.8944 57.2457 53.6988 57.3266 53.5547 57.4707C53.4105 57.6148 53.3295 57.8102 53.3295 58.014C53.3295 58.2178 53.4105 58.4132 53.5547 58.5573C53.6988 58.7014 53.8944 58.7823 54.0982 58.7823H56.6098C56.0572 59.6965 55.3166 60.4828 54.4371 61.0895C53.5576 61.6961 52.5593 62.1092 51.5082 62.3014L52.5338 59.8451C52.5749 59.7516 52.597 59.6508 52.5987 59.5487C52.6004 59.4466 52.5817 59.3451 52.5438 59.2503C52.5058 59.1555 52.4493 59.0692 52.3775 58.9964C52.3058 58.9237 52.2203 58.866 52.126 58.8267C52.0316 58.7874 51.9304 58.7672 51.8282 58.7675C51.7261 58.7677 51.6249 58.7883 51.5308 58.8281C51.4367 58.8679 51.3514 58.926 51.2801 58.9991C51.2087 59.0722 51.1526 59.1588 51.1151 59.2538L49.8186 62.3579H46.1215L47.1709 59.8443C47.2121 59.7508 47.2341 59.6501 47.2358 59.548C47.2376 59.4458 47.2189 59.3444 47.1809 59.2496C47.1429 59.1547 47.0864 59.0684 47.0147 58.9957C46.943 58.9229 46.8574 58.8652 46.7631 58.8259C46.6688 58.7866 46.5676 58.7665 46.4654 58.7667C46.3632 58.767 46.2621 58.7876 46.168 58.8273C46.0738 58.8671 45.9886 58.9253 45.9172 58.9983C45.8458 59.0714 45.7897 59.158 45.7522 59.253L44.4558 62.3571H40.7587L41.8082 59.8436C41.8487 59.7502 41.8702 59.6497 41.8714 59.5479C41.8727 59.4461 41.8538 59.3451 41.8157 59.2507C41.7775 59.1564 41.7211 59.0705 41.6495 58.9981C41.5779 58.9257 41.4926 58.8683 41.3986 58.8291C41.3047 58.7899 41.2038 58.7698 41.102 58.7699C41.0002 58.7701 40.8994 58.7904 40.8055 58.8297C40.7116 58.8691 40.6264 58.9267 40.555 58.9993C40.4836 59.0718 40.4273 59.1578 40.3894 59.2523L39.0929 62.3564H35.3958L36.4454 59.8428C36.4858 59.7494 36.5073 59.6489 36.5086 59.5471C36.5099 59.4454 36.4909 59.3444 36.4528 59.25C36.4147 59.1556 36.3582 59.0697 36.2866 58.9973C36.215 58.925 36.1298 58.8675 36.0358 58.8283C35.9418 58.7892 35.841 58.7691 35.7391 58.7692C35.6373 58.7693 35.5365 58.7896 35.4426 58.829C35.3487 58.8683 35.2636 58.926 35.1922 58.9985C35.1207 59.071 35.0644 59.157 35.0265 59.2515L33.7302 62.3556H30.0329L31.0825 59.842C31.123 59.7486 31.1445 59.6481 31.1457 59.5464C31.147 59.4446 31.128 59.3436 31.0899 59.2492C31.0518 59.1548 30.9953 59.0689 30.9238 58.9966C30.8522 58.9242 30.7669 58.8667 30.6729 58.8276C30.5789 58.7884 30.4781 58.7683 30.3763 58.7684C30.2745 58.7685 30.1737 58.7888 30.0798 58.8282C29.9859 58.8676 29.9007 58.9252 29.8293 58.9977C29.7579 59.0703 29.7016 59.1563 29.6637 59.2507L28.3673 62.3548H24.6701L25.7197 59.8413C25.7608 59.7478 25.7829 59.647 25.7846 59.5449C25.7863 59.4428 25.7676 59.3413 25.7297 59.2465C25.6917 59.1516 25.6352 59.0653 25.5634 58.9926C25.4917 58.9199 25.4062 58.8621 25.3118 58.8228C25.2175 58.7835 25.1163 58.7634 25.0141 58.7636C24.9119 58.7639 24.8108 58.7845 24.7167 58.8243C24.6226 58.864 24.5373 58.9222 24.4659 58.9953C24.3946 59.0684 24.3385 59.1549 24.301 59.25L23.0045 62.3541H19.3074L20.3568 59.8405C20.3979 59.747 20.42 59.6462 20.4217 59.5441C20.4234 59.442 20.4048 59.3405 20.3668 59.2457C20.3288 59.1509 20.2723 59.0646 20.2006 58.9918C20.1288 58.9191 20.0433 58.8614 19.949 58.8221C19.8547 58.7827 19.7535 58.7626 19.6513 58.7629C19.5491 58.7631 19.448 58.7837 19.3538 58.8235C19.2597 58.8633 19.1745 58.9214 19.1031 58.9945C19.0317 59.0676 18.9756 59.1542 18.9381 59.2492L17.6416 62.3533H13.9445L14.9941 59.8397C15.0346 59.7463 15.0561 59.6458 15.0573 59.5441C15.0586 59.4423 15.0396 59.3413 15.0015 59.2469C14.9634 59.1525 14.9069 59.0666 14.8354 58.9943C14.7638 58.9219 14.6785 58.8644 14.5845 58.8253C14.4905 58.7861 14.3897 58.766 14.2879 58.7661C14.1861 58.7662 14.0853 58.7865 13.9914 58.8259C13.8975 58.8653 13.8123 58.9229 13.7409 58.9954C13.6695 59.068 13.6132 59.1539 13.5753 59.2484L12.2788 62.3525H12.165C11.7719 62.3842 11.377 62.3173 11.0163 62.1577C10.6556 61.9981 10.3406 61.751 10.0997 61.4388ZM78.2834 31.769L63.3691 67.5C62.8318 68.686 61.9891 69.7082 60.9271 70.462C59.8651 71.2158 58.6219 71.6742 57.3246 71.7904H18.5507C18.1571 71.8215 17.7621 71.7536 17.4015 71.593C17.0409 71.4323 16.7263 71.1839 16.4864 70.8706C16.2597 70.4425 16.1408 69.9656 16.1403 69.4813C16.1398 68.997 16.2575 68.5198 16.4834 68.0913L18.2352 63.8961H50.9394C52.5438 63.7895 54.0881 63.2448 55.4041 62.3213C56.7201 61.3978 57.7573 60.1309 58.4026 58.6588L64.8204 43.2838C64.8414 43.244 64.8587 43.2025 64.8722 43.1596L71.1709 28.0693H76.215C76.6088 28.038 77.0042 28.1058 77.3651 28.2665C77.726 28.4272 78.0408 28.6757 78.281 28.9893C78.5078 29.4174 78.6265 29.8944 78.627 30.3789C78.6274 30.8633 78.5095 31.3405 78.2834 31.769Z" fill="white"/>
</svg>
