<svg width="280" height="72" viewBox="0 0 280 72" fill="none" xmlns="http://www.w3.org/2000/svg">
<path opacity="0.05" d="M35.6313 34.6C38.1646 35 40.4646 36.0333 42.5313 37.7C44.6646 39.3667 46.3313 41.4333 47.5313 43.9C48.7979 46.3667 49.4313 49 49.4313 51.8C49.4313 55.3333 48.5313 58.5333 46.7313 61.4C44.9313 64.2 42.2979 66.4333 38.8313 68.1C35.4313 69.7 31.3979 70.5 26.7313 70.5H0.731251V0.799997H25.7313C30.4646 0.799997 34.4979 1.6 37.8313 3.2C41.1646 4.73333 43.6646 6.83333 45.3313 9.5C46.9979 12.1667 47.8313 15.1667 47.8313 18.5C47.8313 22.6333 46.6979 26.0667 44.4312 28.8C42.2313 31.4667 39.2979 33.4 35.6313 34.6ZM9.83125 30.9H25.1313C29.3979 30.9 32.6979 29.9 35.0313 27.9C37.3646 25.9 38.5313 23.1333 38.5313 19.6C38.5313 16.0667 37.3646 13.3 35.0313 11.3C32.6979 9.3 29.3313 8.3 24.9313 8.3H9.83125V30.9ZM25.9313 63C30.4646 63 33.9979 61.9333 36.5313 59.8C39.0646 57.6667 40.3313 54.7 40.3313 50.9C40.3313 47.0333 38.9979 44 36.3313 41.8C33.6646 39.5333 30.0979 38.4 25.6313 38.4H9.83125V63H25.9313ZM81.1594 63.1H105.559V70.5H72.0594V0.799997H81.1594V63.1ZM156.823 71.2C150.357 71.2 144.457 69.7 139.123 66.7C133.79 63.6333 129.557 59.4 126.423 54C123.357 48.5333 121.823 42.4 121.823 35.6C121.823 28.8 123.357 22.7 126.423 17.3C129.557 11.8333 133.79 7.6 139.123 4.6C144.457 1.53333 150.357 -4.29153e-06 156.823 -4.29153e-06C163.357 -4.29153e-06 169.29 1.53333 174.623 4.6C179.957 7.6 184.157 11.8 187.223 17.2C190.29 22.6 191.823 28.7333 191.823 35.6C191.823 42.4667 190.29 48.6 187.223 54C184.157 59.4 179.957 63.6333 174.623 66.7C169.29 69.7 163.357 71.2 156.823 71.2ZM156.823 63.3C161.69 63.3 166.057 62.1667 169.923 59.9C173.857 57.6333 176.923 54.4 179.123 50.2C181.39 46 182.523 41.1333 182.523 35.6C182.523 30 181.39 25.1333 179.123 21C176.923 16.8 173.89 13.5667 170.023 11.3C166.157 9.03333 161.757 7.9 156.823 7.9C151.89 7.9 147.49 9.03333 143.623 11.3C139.757 13.5667 136.69 16.8 134.423 21C132.223 25.1333 131.123 30 131.123 35.6C131.123 41.1333 132.223 46 134.423 50.2C136.69 54.4 139.757 57.6333 143.623 59.9C147.557 62.1667 151.957 63.3 156.823 63.3ZM266.637 21C264.703 16.9333 261.903 13.8 258.237 11.6C254.57 9.33333 250.303 8.2 245.437 8.2C240.57 8.2 236.17 9.33333 232.237 11.6C228.37 13.8 225.303 17 223.037 21.2C220.837 25.3333 219.737 30.1333 219.737 35.6C219.737 41.0667 220.837 45.8667 223.037 50C225.303 54.1333 228.37 57.3333 232.237 59.6C236.17 61.8 240.57 62.9 245.437 62.9C252.237 62.9 257.837 60.8667 262.237 56.8C266.637 52.7333 269.203 47.2333 269.937 40.3H242.137V32.9H279.637V39.9C279.103 45.6333 277.303 50.9 274.237 55.7C271.17 60.4333 267.137 64.2 262.137 67C257.137 69.7333 251.57 71.1 245.437 71.1C238.97 71.1 233.07 69.6 227.737 66.6C222.403 63.5333 218.17 59.3 215.037 53.9C211.97 48.5 210.437 42.4 210.437 35.6C210.437 28.8 211.97 22.7 215.037 17.3C218.17 11.8333 222.403 7.6 227.737 4.6C233.07 1.53333 238.97 -4.29153e-06 245.437 -4.29153e-06C252.837 -4.29153e-06 259.37 1.83333 265.037 5.5C270.77 9.16666 274.937 14.3333 277.537 21H266.637Z" fill="#171717"/>
</svg>
