<svg width="557" height="104" viewBox="0 0 557 104" fill="none" xmlns="http://www.w3.org/2000/svg">
<rect y="34" width="4" height="36" rx="2" fill="#787D46"/>
<rect x="7" width="4" height="104" rx="2" fill="#787D46"/>
<rect x="14" y="10" width="4" height="84" rx="2" fill="#787D46"/>
<rect x="21" y="5" width="4" height="94" rx="2" fill="#787D46"/>
<rect x="28" y="30" width="4" height="44" rx="2" fill="#787D46"/>
<rect x="35" y="39" width="4" height="26" rx="2" fill="#787D46"/>
<rect x="42" y="25" width="4" height="54" rx="2" fill="#787D46"/>
<rect x="49" width="4" height="104" rx="2" fill="#787D46"/>
<rect x="56" y="25" width="4" height="54" rx="2" fill="#787D46"/>
<rect x="63" y="5" width="4" height="94" rx="2" fill="#787D46"/>
<rect x="70" y="30" width="4" height="44" rx="2" fill="#787D46"/>
<rect x="77" y="37" width="4" height="30" rx="2" fill="#787D46"/>
<rect x="84" y="23" width="4" height="58" rx="2" fill="#787D46"/>
<rect x="91" y="39" width="4" height="26" rx="2" fill="#787D46"/>
<rect x="98" y="25" width="4" height="54" rx="2" fill="#787D46"/>
<rect x="105" y="39" width="4" height="26" rx="2" fill="#787D46"/>
<rect x="112" y="34" width="4" height="36" rx="2" fill="#787D46"/>
<rect x="119" width="4" height="104" rx="2" fill="#787D46"/>
<rect x="126" y="10" width="4" height="84" rx="2" fill="#787D46"/>
<rect x="133" y="5" width="4" height="94" rx="2" fill="#787D46"/>
<rect x="140" y="30" width="4" height="44" rx="2" fill="#787D46"/>
<rect x="147" y="39" width="4" height="26" rx="2" fill="#787D46"/>
<rect x="154" y="25" width="4" height="54" rx="2" fill="#787D46"/>
<rect x="161" width="4" height="104" rx="2" fill="#787D46"/>
<rect x="168" y="25" width="4" height="54" rx="2" fill="#787D46"/>
<rect x="175" y="5" width="4" height="94" rx="2" fill="#787D46"/>
<rect x="182" y="30" width="4" height="44" rx="2" fill="#787D46"/>
<rect x="189" y="37" width="4" height="30" rx="2" fill="#787D46"/>
<rect x="196" y="23" width="4" height="58" rx="2" fill="#787D46"/>
<rect x="203" y="39" width="4" height="26" rx="2" fill="#787D46"/>
<rect x="210" y="25" width="4" height="54" rx="2" fill="#787D46"/>
<rect x="217" y="39" width="4" height="26" rx="2" fill="#787D46"/>
<rect x="224" y="34" width="4" height="36" rx="2" fill="#787D46"/>
<rect x="231" width="4" height="104" rx="2" fill="#787D46"/>
<rect x="238" y="10" width="4" height="84" rx="2" fill="#787D46"/>
<rect x="245" y="5" width="4" height="94" rx="2" fill="#787D46"/>
<rect x="252" y="30" width="4" height="44" rx="2" fill="#787D46"/>
<rect x="259" y="39" width="4" height="26" rx="2" fill="#787D46"/>
<rect x="266" y="25" width="4" height="54" rx="2" fill="#787D46"/>
<rect x="273" width="4" height="104" rx="2" fill="#787D46"/>
<rect x="280" y="25" width="4" height="54" rx="2" fill="#787D46"/>
<rect x="287" y="5" width="4" height="94" rx="2" fill="#787D46"/>
<rect x="294" y="30" width="4" height="44" rx="2" fill="#787D46"/>
<rect x="301" y="37" width="4" height="30" rx="2" fill="#787D46"/>
<rect x="308" y="23" width="4" height="58" rx="2" fill="#787D46"/>
<rect x="315" y="39" width="4" height="26" rx="2" fill="#787D46"/>
<rect x="322" y="25" width="4" height="54" rx="2" fill="#787D46"/>
<rect x="329" y="39" width="4" height="26" rx="2" fill="#787D46"/>
<rect x="336" y="34" width="4" height="36" rx="2" fill="#787D46"/>
<rect x="343" width="4" height="104" rx="2" fill="#787D46"/>
<rect x="350" y="10" width="4" height="84" rx="2" fill="#787D46"/>
<rect x="357" y="5" width="4" height="94" rx="2" fill="#787D46"/>
<rect x="364" y="30" width="4" height="44" rx="2" fill="#787D46"/>
<rect x="371" y="39" width="4" height="26" rx="2" fill="#787D46"/>
<rect x="378" y="25" width="4" height="54" rx="2" fill="#787D46"/>
<rect x="385" width="4" height="104" rx="2" fill="#787D46"/>
<rect x="392" y="25" width="4" height="54" rx="2" fill="#787D46"/>
<rect x="399" y="5" width="4" height="94" rx="2" fill="#787D46"/>
<rect x="406" y="30" width="4" height="44" rx="2" fill="#787D46"/>
<rect x="413" y="37" width="4" height="30" rx="2" fill="#787D46"/>
<rect x="420" y="23" width="4" height="58" rx="2" fill="#787D46"/>
<rect x="427" y="39" width="4" height="26" rx="2" fill="#787D46"/>
<rect x="434" y="25" width="4" height="54" rx="2" fill="#787D46"/>
<rect x="441" y="39" width="4" height="26" rx="2" fill="#787D46"/>
<rect x="448" y="34" width="4" height="36" rx="2" fill="#787D46"/>
<rect x="455" width="4" height="104" rx="2" fill="#787D46"/>
<rect x="462" y="10" width="4" height="84" rx="2" fill="#787D46"/>
<rect x="469" y="5" width="4" height="94" rx="2" fill="#787D46"/>
<rect x="476" y="30" width="4" height="44" rx="2" fill="#787D46"/>
<rect x="483" y="39" width="4" height="26" rx="2" fill="#787D46"/>
<rect x="490" y="25" width="4" height="54" rx="2" fill="#787D46"/>
<rect x="497" width="4" height="104" rx="2" fill="#787D46"/>
<rect x="504" y="25" width="4" height="54" rx="2" fill="#787D46"/>
<rect x="511" y="5" width="4" height="94" rx="2" fill="#787D46"/>
<rect x="518" y="30" width="4" height="44" rx="2" fill="#787D46"/>
<rect x="525" y="37" width="4" height="30" rx="2" fill="#787D46"/>
<rect x="532" y="23" width="4" height="58" rx="2" fill="#787D46"/>
<rect x="539" y="39" width="4" height="26" rx="2" fill="#787D46"/>
<rect x="546" y="25" width="4" height="54" rx="2" fill="#787D46"/>
<rect x="553" y="39" width="4" height="26" rx="2" fill="#787D46"/>
</svg>
