<svg width="288" height="290" viewBox="0 0 288 290" fill="none" xmlns="http://www.w3.org/2000/svg">
<g opacity="0.5">
<path d="M100.356 0.758522C100.356 0.339603 100.696 0 101.116 0H119.981C120.4 0 120.741 0.339601 120.741 0.75852V289.198C120.741 289.617 120.4 289.956 119.981 289.956H101.116C100.696 289.956 100.356 289.617 100.356 289.198V0.758522Z" fill="#9E6F47"/>
<path d="M133.807 46.5411C133.807 46.1221 134.148 45.7826 134.567 45.7826H153.432C153.852 45.7826 154.192 46.1222 154.192 46.5411V243.415C154.192 243.834 153.852 244.174 153.432 244.174H134.567C134.148 244.174 133.807 243.834 133.807 243.415V46.5411Z" fill="#9E6F47"/>
<path d="M167.259 87.2368C167.259 86.8179 167.6 86.4783 168.019 86.4783H186.884C187.304 86.4783 187.644 86.8179 187.644 87.2368V202.72C187.644 203.139 187.304 203.478 186.884 203.478H168.019C167.6 203.478 167.259 203.139 167.259 202.72V87.2368Z" fill="#9E6F47"/>
<path d="M200.711 41.4543C200.711 41.0353 201.052 40.6957 201.471 40.6957H220.336C220.756 40.6957 221.096 41.0353 221.096 41.4543V248.502C221.096 248.921 220.756 249.261 220.336 249.261H201.471C201.052 249.261 200.711 248.921 200.711 248.502V41.4543Z" fill="#9E6F47"/>
<path d="M234.163 87.2368C234.163 86.8179 234.504 86.4783 234.923 86.4783H253.788C254.208 86.4783 254.548 86.8179 254.548 87.2368V202.72C254.548 203.139 254.208 203.478 253.788 203.478H234.923C234.504 203.478 234.163 203.139 234.163 202.72V87.2368Z" fill="#9E6F47"/>
<path d="M267.615 107.585C267.615 107.166 267.956 106.826 268.375 106.826H287.24C287.66 106.826 288 107.166 288 107.585V182.372C288 182.791 287.66 183.13 287.24 183.13H268.375C267.956 183.13 267.615 182.791 267.615 182.372V107.585Z" fill="#9E6F47"/>
<path d="M66.904 41.4543C66.904 41.0353 67.2442 40.6957 67.6639 40.6957H86.5287C86.9484 40.6957 87.2886 41.0353 87.2886 41.4543V248.502C87.2886 248.921 86.9484 249.261 86.5287 249.261H67.6639C67.2442 249.261 66.904 248.921 66.904 248.502V41.4543Z" fill="#9E6F47"/>
<path d="M33.452 87.2368C33.452 86.8179 33.7922 86.4783 34.2119 86.4783H53.0768C53.4964 86.4783 53.8367 86.8179 53.8367 87.2368V202.72C53.8367 203.139 53.4964 203.478 53.0768 203.478H34.2119C33.7922 203.478 33.452 203.139 33.452 202.72V87.2368Z" fill="#9E6F47"/>
<path d="M0 107.585C0 107.166 0.340216 106.826 0.759894 106.826H19.6248C20.0445 106.826 20.3847 107.166 20.3847 107.585V182.372C20.3847 182.791 20.0445 183.13 19.6248 183.13H0.759894C0.340216 183.13 0 182.791 0 182.372V107.585Z" fill="#9E6F47"/>
</g>
</svg>
