<svg width="1600" height="266" viewBox="0 0 1600 266" fill="none" xmlns="http://www.w3.org/2000/svg">
<path opacity="0.05" d="M-38.1609 1.11265C-9.28085 1.11265 15.6725 6.55931 36.6992 17.4526C57.9792 28.0926 74.1925 43.4193 85.3391 63.4326C96.7392 83.446 102.439 107.006 102.439 134.113C102.439 161.219 96.7392 184.779 85.3391 204.793C74.1925 224.553 57.9792 239.753 36.6992 250.393C15.6725 260.779 -9.28085 265.973 -38.1609 265.973H-120.621V1.11265H-38.1609ZM-38.1609 237.473C-3.96085 237.473 22.1325 228.479 40.1191 210.493C58.1058 192.253 67.0992 166.793 67.0992 134.113C67.0992 101.179 57.9792 75.466 39.7391 56.9727C21.7525 38.4793 -4.21418 29.2326 -38.1609 29.2326H-86.0409V237.473H-38.1609ZM220.631 29.2326V117.773H317.151V146.273H220.631V237.473H328.551V265.973H186.051V0.732651H328.551V29.2326H220.631ZM453.455 237.853H546.175V265.973H418.875V1.11265H453.455V237.853ZM655.479 1.11265V265.973H620.899V1.11265H655.479ZM971.294 1.11265L871.354 265.973H831.454L731.514 1.11265H768.374L851.594 229.493L934.814 1.11265H971.294ZM1081.79 29.2326V117.773H1178.31V146.273H1081.79V237.473H1189.71V265.973H1047.21V0.732651H1189.71V29.2326H1081.79ZM1419.5 265.973L1356.42 157.673H1314.62V265.973H1280.04V1.11265H1365.54C1385.55 1.11265 1402.4 4.53265 1416.08 11.3726C1430.01 18.2127 1440.4 27.4593 1447.24 39.1127C1454.08 50.766 1457.5 64.066 1457.5 79.0127C1457.5 97.2527 1452.18 113.339 1441.54 127.273C1431.15 141.206 1415.44 150.453 1394.42 155.013L1460.92 265.973H1419.5ZM1314.62 129.933H1365.54C1384.28 129.933 1398.34 125.373 1407.72 116.253C1417.09 106.879 1421.78 94.466 1421.78 79.0127C1421.78 63.306 1417.09 51.146 1407.72 42.5327C1398.6 33.9193 1384.54 29.6126 1365.54 29.6126H1314.62V129.933ZM1734.67 1.11265L1648.41 166.033V265.973H1613.83V166.033L1527.19 1.11265H1565.57L1630.93 135.253L1696.29 1.11265H1734.67Z" fill="#383838"/>
</svg>
