<svg width="251" height="297" viewBox="0 0 251 297" fill="none" xmlns="http://www.w3.org/2000/svg">
<path d="M93.9057 2.67206C93.9057 1.19632 94.9323 0 96.1988 0H109.499C110.766 0 111.792 1.19632 111.792 2.67206V294.328C111.792 295.804 110.766 297 109.499 297H96.1988C94.9323 297 93.9057 295.804 93.9057 294.328V2.67206Z" fill="#888D56"/>
<path d="M125.208 49.5667C125.208 48.091 126.234 46.8947 127.501 46.8947H140.801C142.068 46.8947 143.094 48.091 143.094 49.5667V247.433C143.094 248.909 142.068 250.105 140.801 250.105H127.501C126.234 250.105 125.208 248.909 125.208 247.433V49.5667Z" fill="#888D56"/>
<path d="M156.509 91.251C156.509 89.7753 157.536 88.579 158.803 88.579H172.103C173.37 88.579 174.396 89.7753 174.396 91.251V205.749C174.396 207.225 173.37 208.421 172.103 208.421H158.803C157.536 208.421 156.509 207.225 156.509 205.749V91.251Z" fill="#888D56"/>
<path d="M187.811 44.3563C187.811 42.8806 188.838 41.6843 190.104 41.6843H203.405C204.671 41.6843 205.698 42.8806 205.698 44.3563V252.644C205.698 254.12 204.671 255.316 203.405 255.316H190.104C188.838 255.316 187.811 254.12 187.811 252.644V44.3563Z" fill="#888D56"/>
<path d="M219.113 91.251C219.113 89.7753 220.14 88.579 221.406 88.579H234.707C235.973 88.579 237 89.7753 237 91.251V148.5V177.124V205.749C237 207.225 235.973 208.421 234.707 208.421H221.406C220.14 208.421 219.113 207.225 219.113 205.749V91.251Z" fill="#888D56"/>
<path d="M62.6038 44.3563C62.6038 42.8806 63.6305 41.6843 64.8969 41.6843H78.1974C79.4639 41.6843 80.4906 42.8806 80.4906 44.3563V252.644C80.4906 254.12 79.4639 255.316 78.1974 255.316H64.8969C63.6305 255.316 62.6038 254.12 62.6038 252.644V44.3563Z" fill="#888D56"/>
<path d="M31.3019 91.251C31.3019 89.7753 32.3286 88.579 33.5951 88.579H46.8955C48.162 88.579 49.1887 89.7753 49.1887 91.251V205.749C49.1887 207.225 48.162 208.421 46.8955 208.421H33.5951C32.3286 208.421 31.3019 207.225 31.3019 205.749V91.251Z" fill="#888D56"/>
<path d="M0 112.093C0 110.617 1.02669 109.421 2.29318 109.421H15.5936C16.8601 109.421 17.8868 110.617 17.8868 112.093V184.907C17.8868 186.383 16.8601 187.579 15.5936 187.579H2.29318C1.02669 187.579 0 186.383 0 184.907V112.093Z" fill="#888D56"/>
</svg>
