<svg width="279" height="70" viewBox="0 0 279 70" fill="none" xmlns="http://www.w3.org/2000/svg">
<path opacity="0.05" d="M47.6566 0.299997V7.7H28.6566V70H19.5566V7.7H0.456641V0.299997H47.6566ZM77.9582 7.7V31H103.358V38.5H77.9582V62.5H106.358V70H68.8582V0.199999H106.358V7.7H77.9582ZM171.328 54.5H140.928L135.328 70H125.728L150.928 0.699998H161.428L186.528 70H176.928L171.328 54.5ZM168.728 47.1L156.128 11.9L143.528 47.1H168.728ZM278.211 0.799997V70H269.111V18.4L246.111 70H239.711L216.611 18.3V70H207.511V0.799997H217.311L242.911 58L268.511 0.799997H278.211Z" fill="#383838"/>
</svg>
