<svg width="12" height="12" viewBox="0 0 12 12" fill="none" xmlns="http://www.w3.org/2000/svg">
<path fill-rule="evenodd" clip-rule="evenodd" d="M1.5 6C1.5 5.44772 1.94772 5 2.5 5H9.5C10.0523 5 10.5 5.44772 10.5 6C10.5 6.55228 10.0523 7 9.5 7H2.5C1.94772 7 1.5 6.55228 1.5 6Z" fill="#383838"/>
<path fill-rule="evenodd" clip-rule="evenodd" d="M5.29289 1.79289C5.68342 1.40237 6.31658 1.40237 6.70711 1.79289L10.2071 5.29289C10.5976 5.68342 10.5976 6.31658 10.2071 6.70711L6.70711 10.2071C6.31658 10.5976 5.68342 10.5976 5.29289 10.2071C4.90237 9.81658 4.90237 9.18342 5.29289 8.79289L8.08579 6L5.29289 3.20711C4.90237 2.81658 4.90237 2.18342 5.29289 1.79289Z" fill="#383838"/>
</svg>
