<svg width="32" height="32" viewBox="0 0 32 32" fill="none" xmlns="http://www.w3.org/2000/svg">
<path fill-rule="evenodd" clip-rule="evenodd" d="M16 5.66797C16.5523 5.66797 17 6.11568 17 6.66797V25.3346C17 25.8869 16.5523 26.3346 16 26.3346C15.4477 26.3346 15 25.8869 15 25.3346V6.66797C15 6.11568 15.4477 5.66797 16 5.66797Z" fill="#171717"/>
<path fill-rule="evenodd" clip-rule="evenodd" d="M5.95923 15.2929C6.34975 14.9024 6.98291 14.9024 7.37344 15.2929L15.9997 23.9191L24.6259 15.2929C25.0164 14.9024 25.6496 14.9024 26.0401 15.2929C26.4306 15.6834 26.4306 16.3166 26.0401 16.7071L16.7068 26.0404C16.3163 26.4309 15.6831 26.4309 15.2926 26.0404L5.95923 16.7071C5.56871 16.3166 5.5687 15.6834 5.95923 15.2929Z" fill="#171717"/>
</svg>
