<svg width="26" height="26" viewBox="0 0 26 26" fill="none" xmlns="http://www.w3.org/2000/svg">
<path fill-rule="evenodd" clip-rule="evenodd" d="M4.65057 13C4.65057 12.4477 5.09829 12 5.65057 12H20.3506C20.9029 12 21.3506 12.4477 21.3506 13C21.3506 13.5523 20.9029 14 20.3506 14H5.65057C5.09829 14 4.65057 13.5523 4.65057 13Z" fill="#383838"/>
<path fill-rule="evenodd" clip-rule="evenodd" d="M13.7081 4.94133C14.0986 5.33186 14.0986 5.96502 13.7081 6.35555L7.0652 12.9984L13.7081 19.6413C14.0986 20.0318 14.0986 20.665 13.7081 21.0555C13.3176 21.446 12.6844 21.446 12.2939 21.0555L4.94388 13.7055C4.75634 13.518 4.65099 13.2636 4.65099 12.9984C4.65099 12.7332 4.75634 12.4788 4.94388 12.2913L12.2939 4.94133C12.6844 4.55081 13.3176 4.55081 13.7081 4.94133Z" fill="#383838"/>
</svg>
