<svg width="12" height="12" viewBox="0 0 12 12" fill="none" xmlns="http://www.w3.org/2000/svg">
<path fill-rule="evenodd" clip-rule="evenodd" d="M1.5 6C1.5 5.44772 1.94772 5 2.5 5H9.5C10.0523 5 10.5 5.44772 10.5 6C10.5 6.55228 10.0523 7 9.5 7H2.5C1.94772 7 1.5 6.55228 1.5 6Z" fill="#383838"/>
<path fill-rule="evenodd" clip-rule="evenodd" d="M6.70711 1.79289C7.09763 2.18342 7.09763 2.81658 6.70711 3.20711L3.91421 6L6.70711 8.79289C7.09763 9.18342 7.09763 9.81658 6.70711 10.2071C6.31658 10.5976 5.68342 10.5976 5.29289 10.2071L1.79289 6.70711C1.40237 6.31658 1.40237 5.68342 1.79289 5.29289L5.29289 1.79289C5.68342 1.40237 6.31658 1.40237 6.70711 1.79289Z" fill="#383838"/>
</svg>
