<svg width="24" height="24" viewBox="0 0 24 24" fill="none" xmlns="http://www.w3.org/2000/svg">
<g clip-path="url(#clip0_1_32)">
<path d="M5.07422 18.083C4.16958 18.083 3.43359 18.819 3.43359 19.7236C3.43359 20.6283 4.16958 21.3643 5.07422 21.3643C5.97886 21.3643 6.71484 20.6283 6.71484 19.7236C6.71484 18.819 5.97886 18.083 5.07422 18.083ZM5.07422 20.4268C4.68652 20.4268 4.37109 20.1113 4.37109 19.7236C4.37109 19.3359 4.68652 19.0205 5.07422 19.0205C5.46192 19.0205 5.77734 19.3359 5.77734 19.7236C5.77734 20.1113 5.46192 20.4268 5.07422 20.4268Z" fill="#787D46"/>
<path d="M23.0094 10.9018L22.1221 9.65827C21.9717 9.44752 21.6789 9.39853 21.4683 9.54895C21.2575 9.69933 21.2086 9.99206 21.359 10.2028L22.2463 11.4463C22.2791 11.4923 22.2683 11.5566 22.2224 11.5894L19.3549 13.6354L15.6745 8.47762L16.0156 7.81519L18.3439 6.15375C18.3899 6.12089 18.4542 6.13177 18.4869 6.17756L19.1809 7.15017C19.3313 7.36092 19.624 7.40986 19.8347 7.25948C20.0455 7.10916 20.0944 6.81638 19.944 6.60567L19.2499 5.63273C18.9165 5.16642 18.2658 5.05781 17.7994 5.39062L16.9532 5.99447L17.4287 5.07098C17.5562 4.82428 17.5799 4.54266 17.4953 4.27805C17.4107 4.01316 17.228 3.79716 16.9807 3.66984L11.2263 0.706875C10.9795 0.57975 10.6978 0.556313 10.4333 0.640922C10.1687 0.725578 9.95291 0.908156 9.82574 1.15509L9.34996 2.07914V1.03983C9.34996 0.466453 8.88346 0 8.31009 0H1.83768C1.2643 0 0.797852 0.466453 0.797852 1.03983V19.724C0.797852 22.0818 2.71607 24 5.07393 24C6.00112 24 6.86024 23.7032 7.56154 23.1999C7.57223 23.1935 7.58273 23.1866 7.59304 23.1792L12.0898 19.9706L15.8033 17.321C15.8034 17.3209 15.8035 17.3209 15.8037 17.3208C15.8038 17.3207 15.8039 17.3206 15.8039 17.3205L22.7672 12.3523C23.2336 12.019 23.3422 11.3683 23.0094 10.9018ZM18.5916 14.1799L15.6407 16.2854L13.3252 13.0401L15.1917 9.41517L18.5916 14.1799ZM11.9268 18.9352L10.976 17.6026L12.8425 13.9776L14.8776 16.8299L11.9268 18.9352ZM10.8055 15.8856L9.34991 15.136V11.059L12.4649 12.663L12.3586 12.8693C12.3576 12.8714 12.3564 12.8734 12.3554 12.8755L10.8055 15.8856ZM12.8941 11.8295L9.34996 10.0046V5.92673L14.5537 8.60639L12.8941 11.8295ZM8.41246 9.12502H1.73535V5.50003H8.41246V9.12502ZM1.73535 10.0625H8.41246V13.6875H1.73535V10.0625ZM9.34996 16.1905L10.3764 16.7191L9.34996 18.7125V16.1905ZM10.4932 18.5401L11.1636 19.4797L9.3389 20.7818L10.4932 18.5401ZM10.6592 1.58433C10.6752 1.55325 10.7005 1.53975 10.7189 1.53384C10.7374 1.52794 10.7659 1.52428 10.7971 1.54036L16.5515 4.50328C16.5827 4.51936 16.5963 4.54477 16.6022 4.56323C16.608 4.58152 16.6116 4.60983 16.5954 4.64119L14.9829 7.77291L9.34996 4.87223V4.12711L10.6592 1.58433ZM1.83768 0.9375H8.31009C8.36652 0.9375 8.41246 0.983391 8.41246 1.03983V4.56248H1.73535V1.03983C1.73535 0.983391 1.78124 0.9375 1.83768 0.9375ZM5.07388 23.0625C3.23301 23.0625 1.73535 21.5648 1.73535 19.724V14.625H8.41246V19.724C8.41246 21.5648 6.91476 23.0625 5.07388 23.0625Z" fill="#787D46"/>
<path d="M20.6519 8.87305C20.9107 8.87305 21.1206 8.66318 21.1206 8.4043C21.1206 8.14541 20.9107 7.93555 20.6519 7.93555C20.393 7.93555 20.1831 8.14541 20.1831 8.4043C20.1831 8.66318 20.393 8.87305 20.6519 8.87305Z" fill="#787D46"/>
</g>
<defs>
<clipPath id="clip0_1_32">
<rect width="24" height="24" fill="white"/>
</clipPath>
</defs>
</svg>
