<svg width="15" height="24" viewBox="0 0 15 24" fill="none" xmlns="http://www.w3.org/2000/svg">
<g clip-path="url(#clip0_1_63)">
<path d="M12 1.5C12.3978 1.5 12.7794 1.65804 13.0607 1.93934C13.342 2.22064 13.5 2.60218 13.5 3V21C13.5 21.3978 13.342 21.7794 13.0607 22.0607C12.7794 22.342 12.3978 22.5 12 22.5H3C2.60218 22.5 2.22064 22.342 1.93934 22.0607C1.65804 21.7794 1.5 21.3978 1.5 21V3C1.5 2.60218 1.65804 2.22064 1.93934 1.93934C2.22064 1.65804 2.60218 1.5 3 1.5H12ZM3 0C2.20435 0 1.44129 0.316071 0.87868 0.87868C0.31607 1.44129 0 2.20435 0 3V21C0 21.7956 0.31607 22.5587 0.87868 23.1213C1.44129 23.6839 2.20435 24 3 24H12C12.7956 24 13.5587 23.6839 14.1213 23.1213C14.6839 22.5587 15 21.7956 15 21V3C15 2.20435 14.6839 1.44129 14.1213 0.87868C13.5587 0.316071 12.7956 0 12 0H3Z" fill="#171717"/>
<path d="M8 21.0005C8.39782 21.0005 8.77936 20.8425 9.06066 20.5611C9.34196 20.2798 9.5 19.8983 9.5 19.5005C9.5 19.1027 9.34196 18.7211 9.06066 18.4398C8.77936 18.1585 8.39782 18.0005 8 18.0005C7.60218 18.0005 7.22064 18.1585 6.93934 18.4398C6.65804 18.7211 6.5 19.1027 6.5 19.5005C6.5 19.8983 6.65804 20.2798 6.93934 20.5611C7.22064 20.8425 7.60218 21.0005 8 21.0005Z" fill="#171717"/>
</g>
<defs>
<clipPath id="clip0_1_63">
<rect width="15" height="24" fill="white"/>
</clipPath>
</defs>
</svg>
