<svg width="24" height="24" viewBox="0 0 24 24" fill="none" xmlns="http://www.w3.org/2000/svg">
<g clip-path="url(#clip0_1_78)">
<path d="M24.0467 8.06249V11.8125C24.0467 12.3303 23.6271 12.75 23.1092 12.75H22.4927L22.0978 16.2651C22.0439 16.7441 21.6382 17.0978 21.1672 17.098C21.1322 17.098 21.0971 17.096 21.0614 17.092C20.5469 17.0343 20.1766 16.5701 20.2345 16.0558L20.723 11.7079C20.7763 11.2337 21.1773 10.875 21.6546 10.875H22.1719V8.99999H1.92188V10.875H17.9063C18.4241 10.875 18.8438 11.2949 18.8438 11.8125C18.8438 12.3303 18.4241 12.75 17.9063 12.75H3.50501L4.43079 20.4732C4.54359 21.4149 5.34394 22.125 6.29243 22.125H17.8764C18.8319 22.125 19.633 21.4089 19.7397 20.4593C19.7974 19.9448 20.2614 19.5747 20.7759 19.6324C21.2904 19.6903 21.6607 20.1542 21.603 20.6688C21.3895 22.5678 19.7875 24 17.8764 24H6.29243C4.39545 24 2.79474 22.5797 2.56897 20.6962L1.61664 12.75H0.984377C0.466553 12.75 0.046875 12.3303 0.046875 11.8125V8.06249C0.046875 7.54467 0.466553 7.12499 0.984377 7.12499H4.30958L9.2635 0.382484C9.57002 -0.0346313 10.1567 -0.124536 10.574 0.182166C10.9913 0.488685 11.081 1.07536 10.7745 1.49265L6.6363 7.12499H17.4921L13.3537 1.49265C13.0472 1.07536 13.1369 0.488685 13.5542 0.182166C13.9715 -0.124536 14.5582 -0.0348144 14.8649 0.382484L19.8186 7.12499H23.1092C23.6271 7.12499 24.0467 7.54485 24.0467 8.06249ZM11.1094 15.5625V19.3125C11.1094 19.8303 11.5291 20.25 12.0469 20.25C12.5645 20.25 12.9844 19.8303 12.9844 19.3125V15.5625C12.9844 15.0447 12.5645 14.625 12.0469 14.625C11.5291 14.625 11.1094 15.0447 11.1094 15.5625ZM14.8594 15.5625V19.3125C14.8594 19.8303 15.2791 20.25 15.7969 20.25C16.3145 20.25 16.7344 19.8303 16.7344 19.3125V15.5625C16.7344 15.0447 16.3145 14.625 15.7969 14.625C15.2791 14.625 14.8594 15.0447 14.8594 15.5625ZM7.35939 15.5625V19.3125C7.35939 19.8303 7.77907 20.25 8.29689 20.25C8.81453 20.25 9.23439 19.8303 9.23439 19.3125V15.5625C9.23439 15.0447 8.81453 14.625 8.29689 14.625C7.77907 14.625 7.35939 15.0447 7.35939 15.5625Z" fill="#787D46"/>
</g>
<defs>
<clipPath id="clip0_1_78">
<rect width="24" height="24" fill="white"/>
</clipPath>
</defs>
</svg>
